<svg width="84" height="40" viewBox="0 0 84 40" fill="none" xmlns="http://www.w3.org/2000/svg">
<path fill-rule="evenodd" clip-rule="evenodd" d="M4.57549 3.8548C2.77592 5.41695 1.54218 7.81531 1.54218 11.1556C1.54218 14.2857 3.14132 17.5804 5.16724 20.4759C7.17947 23.3519 9.53753 25.7285 10.8991 27.0035C11.242 27.3246 11.7448 27.3184 12.0804 26.988L12.6204 27.5404L12.0804 26.988C13.4007 25.6881 15.6785 23.2799 17.621 20.3967C19.5772 17.4933 21.1197 14.2153 21.1197 11.1556C21.1197 8.00724 19.8946 5.64725 18.0826 4.05375C16.256 2.44736 13.798 1.59159 11.3179 1.54937C8.83789 1.50716 6.39092 2.27886 4.57549 3.8548ZM19.099 2.88969C21.247 4.77865 22.6619 7.56371 22.6619 11.1556C22.6619 14.6848 20.9081 18.2811 18.8985 21.2637C16.8753 24.2666 14.5178 26.7564 13.1604 28.0928C12.2365 29.0024 10.7941 29.022 9.847 28.1351C8.44621 26.8234 6.0033 24.3641 3.90513 21.3654C1.82066 18.3861 0 14.7673 0 11.1556C0 7.39615 1.40622 4.55957 3.5666 2.6842C5.7111 0.822614 8.54406 -0.0458023 11.344 0.00185837C14.1438 0.0495164 16.9657 1.01362 19.099 2.88969Z" fill="white"/>
<path fill-rule="evenodd" clip-rule="evenodd" d="M11.3309 18.0041C15.0694 18.0041 18.1001 14.9625 18.1001 11.2106C18.1001 7.45857 15.0694 4.417 11.3309 4.417C7.59238 4.417 4.56171 7.45857 4.56171 11.2106C4.56171 14.9625 7.59238 18.0041 11.3309 18.0041ZM11.3309 19.5518C15.9211 19.5518 19.6423 15.8173 19.6423 11.2106C19.6423 6.60378 15.9211 2.86926 11.3309 2.86926C6.74065 2.86926 3.01953 6.60378 3.01953 11.2106C3.01953 15.8173 6.74065 19.5518 11.3309 19.5518Z" fill="white"/>
<path d="M12.115 10.581C12.115 11.3633 11.4831 11.9974 10.7037 11.9974C9.92419 11.9974 9.2923 11.3633 9.2923 10.581C9.2923 9.79871 9.92419 9.16455 10.7037 9.16455C11.4831 9.16455 12.115 9.79871 12.115 10.581Z" fill="white"/>
<path d="M11.8013 12.1548C11.8013 12.4156 12.012 12.627 12.2718 12.627C12.5316 12.627 12.7422 12.4156 12.7422 12.1548C12.7422 11.8941 12.5316 11.6827 12.2718 11.6827C12.012 11.6827 11.8013 11.8941 11.8013 12.1548Z" fill="white"/>
<path d="M39.38 15.4221C40.6473 16.5374 41.2809 17.6831 41.2809 18.8593C41.2809 19.6299 41.0194 20.4005 40.4964 21.1711C38.6458 23.8479 36.4733 25.5006 33.979 26.1293C33.3353 26.2915 32.6111 26.3726 31.8065 26.3726C29.9157 26.3726 28.1053 25.8961 26.3753 24.943C25.5506 24.4968 24.9773 23.9189 24.6554 23.2091C24.3336 22.4994 24.1727 21.6578 24.1727 20.6844C24.1727 19.9949 24.2531 19.0013 24.4141 17.7034C24.4744 17.3587 24.756 17.1863 25.2589 17.1863C25.8221 17.1863 26.3954 17.3688 26.9788 17.7338C27.5621 18.0989 27.8236 18.5044 27.7633 18.9506C27.7432 19.1128 27.6929 19.4778 27.6124 20.0456C27.532 20.5932 27.4917 21.1001 27.4917 21.5665C27.4917 22.621 27.7432 23.3308 28.2461 23.6958C28.749 24.0608 29.4027 24.2433 30.2073 24.2433C31.012 24.2433 31.8468 24.071 32.7117 23.7262C33.3755 23.4626 34.1098 23.0266 34.9144 22.4183C35.7391 21.8099 36.4331 21.1204 36.9963 20.3498C37.5797 19.5792 37.8714 18.8289 37.8714 18.0989C37.8714 17.5108 37.6702 16.9734 37.2679 16.4867C36.8656 16.0203 36.2923 15.5741 35.548 15.1483C34.8239 14.7224 33.8583 14.2256 32.6514 13.6578C31.1628 12.948 29.9659 12.3295 29.0607 11.8023C28.1757 11.2548 27.4113 10.616 26.7676 9.88593C26.1239 9.13561 25.802 8.29404 25.802 7.36122C25.802 6.93536 25.8523 6.5602 25.9529 6.23574C26.4357 4.41065 27.6225 3.10266 29.5133 2.31179C31.4243 1.50063 33.4862 1.09506 35.6989 1.09506C36.6644 1.09506 37.5093 1.15589 38.2334 1.27757C38.9576 1.39924 39.5611 1.66286 40.0438 2.06844C40.587 2.51457 40.8585 3.14322 40.8585 3.95437C40.8585 4.44106 40.7781 4.92776 40.6171 5.41445C40.4763 5.88086 40.2551 6.51965 39.9533 7.3308C39.732 7.87833 39.6013 8.21293 39.5611 8.3346C39.4404 8.67934 39.1085 8.85171 38.5653 8.85171C38.0222 8.85171 37.4892 8.69962 36.9662 8.39544C36.4432 8.09126 36.1817 7.74652 36.1817 7.36122C36.1817 7.25982 36.1917 7.17871 36.2118 7.11787L36.6644 5.80988C36.8656 5.24208 37.0064 4.81622 37.0869 4.53232L37.2981 3.25475C34.7635 3.2142 32.7419 3.73131 31.2332 4.80608C30.6298 5.21166 30.157 5.68821 29.8151 6.23574C29.4932 6.76299 29.3323 7.30038 29.3323 7.84791C29.3323 8.80101 29.805 9.62231 30.7505 10.3118C31.4344 10.7985 32.1887 11.2548 33.0135 11.6806C33.8583 12.1065 34.3713 12.3701 34.5523 12.4715C35.719 13.0596 36.6544 13.5564 37.3584 13.962C38.0826 14.3676 38.7564 14.8542 39.38 15.4221Z" fill="white"/>
<path d="M51.6797 18.0684C51.7601 17.7237 51.8004 17.3181 51.8004 16.8517C51.8004 15.2294 51.1969 13.6477 49.99 12.1065C49.306 11.2142 48.5819 10.4943 47.8175 9.94677C47.214 13.7389 46.7413 16.801 46.3993 19.1331C46.2384 20.0862 46.0171 21.5158 45.7355 23.4221C46.339 23.706 46.8922 23.8479 47.395 23.8479C48.2399 23.8479 49.0043 23.4322 49.6882 22.6008C50.1911 21.9924 50.6135 21.2928 50.9555 20.5019C51.2975 19.711 51.5388 18.8999 51.6797 18.0684ZM48.1494 6.9962C49.3965 7.42205 50.523 8.14195 51.5288 9.15589C52.5346 10.1496 53.3191 11.3156 53.8823 12.654C54.4657 13.9721 54.7573 15.2902 54.7573 16.6084C54.7573 17.3181 54.6668 18.0076 54.4858 18.6768C54.1036 20.076 53.5202 21.3333 52.7357 22.4487C51.9713 23.5437 51.046 24.4157 49.9598 25.0646C48.8937 25.6933 47.7471 26.0076 46.52 26.0076C46.1378 26.0076 45.7456 25.9772 45.3433 25.9164C44.5386 31.1077 43.8145 35.346 43.1708 38.6312C43.0903 39.0165 42.8087 39.3409 42.3259 39.6046C41.8432 39.8682 41.3503 40 40.8474 40C40.5055 40 40.244 39.929 40.0629 39.7871C39.8618 39.6451 39.7914 39.4322 39.8517 39.1483C40.8374 34.1191 41.7023 29.3232 42.4466 24.7605L42.3863 24.73C42.1248 24.5475 41.994 24.3447 41.994 24.1217C41.994 23.7769 42.2354 23.4525 42.7182 23.1483C43.3619 19.3967 44.086 14.5805 44.8907 8.69962L44.4984 8.73004L44.1665 8.76046C43.8245 8.76046 43.5731 8.69962 43.4122 8.57795C43.2512 8.45627 43.1708 8.30418 43.1708 8.12167C43.1708 7.81749 43.3216 7.52345 43.6234 7.23954C43.9251 6.95564 44.2973 6.77313 44.7398 6.69202C45.1019 6.63118 45.464 6.60076 45.826 6.60076C46.0875 6.60076 46.4396 6.62104 46.8821 6.6616C47.5258 6.58048 47.9482 6.69202 48.1494 6.9962Z" fill="white"/>
<path d="M66.519 15.2091C66.519 13.0596 65.2719 11.3663 62.7776 10.1293C62.154 10.6565 61.5304 11.3561 60.9068 12.2281C60.1424 13.3435 59.5088 14.5906 59.0059 15.9696C58.8047 16.5171 58.6136 17.2674 58.4326 18.2205C58.2515 19.1534 58.161 20.0253 58.161 20.8365C58.161 21.6679 58.2717 22.3371 58.4929 22.8441C58.7343 23.3308 59.1165 23.5741 59.6395 23.5741C60.062 23.5741 60.5548 23.4018 61.118 23.057C62.6669 22.1445 63.9543 21.0089 64.9802 19.6502C66.0061 18.2915 66.519 16.8112 66.519 15.2091ZM67.3639 9.70342C68.0881 10.3929 68.6412 11.1736 69.0234 12.0456C69.4257 12.9176 69.6269 13.8403 69.6269 14.8137C69.6269 16.2129 69.2246 17.6324 68.42 19.0722C67.8768 20.0456 67.0823 21.0697 66.0363 22.1445C64.9903 23.2193 63.8236 24.1318 62.5362 24.8821C61.2689 25.6122 60.0519 25.9772 58.8852 25.9772C58.161 25.9772 57.4771 25.815 56.8334 25.4905C55.4655 24.7402 54.7816 23.3916 54.7816 21.4449C54.7816 20.0456 55.0934 18.5146 55.717 16.8517C56.3406 15.1686 57.0044 13.7491 57.7084 12.5932C59.4183 9.85551 61.2186 8.13181 63.1095 7.42205C63.6325 7.21927 64.1957 7.11787 64.7992 7.11787C65.5032 7.11787 66.0966 7.30038 66.5794 7.6654C67.0622 8.01014 67.3438 8.55767 67.4242 9.30799V9.42966C67.4242 9.49049 67.4041 9.58175 67.3639 9.70342Z" fill="white"/>
<path d="M81.3146 19.0722C81.4554 18.9303 81.6767 18.8188 81.9784 18.7376C82.2801 18.6565 82.5819 18.616 82.8836 18.616C83.6279 18.616 84 18.8086 84 19.1939C84 19.3764 83.8994 19.5792 83.6983 19.8023C83.4569 20.0862 83.2356 20.3599 83.0345 20.6236C82.8333 20.8669 82.6523 21.09 82.4913 21.2928C81.6063 22.4487 80.8117 23.3714 80.1077 24.0608C79.4036 24.73 78.5789 25.2167 77.6334 25.5209C77.1909 25.6629 76.7182 25.7338 76.2153 25.7338C75.3704 25.7338 74.6463 25.4905 74.0428 25.0038C73.4595 24.5171 73.1175 23.8074 73.0169 22.8745C72.9767 22.6109 72.9566 22.2053 72.9566 21.6578C72.9566 20.6033 73.0773 19.5285 73.3186 18.4335C73.56 17.3384 73.9121 15.9696 74.3747 14.327L74.7368 13.019L73.5902 13.1407C73.027 13.1812 72.2626 13.2624 71.297 13.384C70.8344 13.4449 70.4824 13.3942 70.241 13.2319C69.9996 13.0697 69.8789 12.8568 69.8789 12.5932C69.8789 12.289 70.0197 11.9949 70.3013 11.711C70.603 11.4068 70.9852 11.2345 71.4479 11.1939L75.3403 10.7376C76.2253 7.45247 77.2211 4.22814 78.3274 1.06464C78.428 0.780735 78.6996 0.537388 79.1421 0.3346C79.6048 0.111533 80.0473 0 80.4697 0C80.7312 0 80.9424 0.050697 81.1034 0.152091C81.2844 0.253485 81.3749 0.405576 81.3749 0.608364C81.3749 0.669201 81.3548 0.780735 81.3146 0.942966C80.1479 4.24842 79.1723 7.40177 78.3878 10.403C79.7959 10.2611 80.7312 10.1901 81.1939 10.1901C81.7772 10.1901 82.0689 10.3625 82.0689 10.7072C82.0689 10.9911 81.8979 11.3054 81.556 11.6502C81.214 11.9747 80.862 12.1774 80.4999 12.2586C79.293 12.4613 78.3878 12.6033 77.7843 12.6844C77.4423 14.0634 77.1406 15.4119 76.8791 16.73C76.8389 16.8923 76.6981 17.4905 76.4567 18.5247C76.2153 19.5387 76.0946 20.4918 76.0946 21.384C76.0946 22.5399 76.3963 23.1686 76.9998 23.27C77.382 23.3308 77.8145 23.1179 78.2972 22.6312C78.8001 22.1242 79.4438 21.3739 80.2283 20.3802C80.7111 19.7516 81.0732 19.3156 81.3146 19.0722Z" fill="white"/>
</svg>
