<svg width="376" height="320" viewBox="0 0 376 320" fill="none" xmlns="http://www.w3.org/2000/svg">
<path fill-rule="evenodd" clip-rule="evenodd" d="M284.767 7.49994C345.821 10.4763 410.038 5.23721 460.816 39.2673C512.559 73.9439 547.722 131.06 560.198 192.086C571.926 249.456 552.514 307.678 526.402 360.091C503.267 406.529 455.661 430.834 421.711 470.066C373.03 526.32 358.303 628.065 284.767 639.322C213.741 650.195 162.833 569.527 113.549 517.24C72.5545 473.748 45.591 422.132 26.6277 365.453C7.49605 308.271 -7.68353 249.532 4.20205 190.418C17.1455 126.041 40.7816 57.3346 95.7884 21.4723C150.028 -13.8901 220.094 4.34717 284.767 7.49994Z" fill="url(#paint0_linear)"/>
<defs>
<linearGradient id="paint0_linear" x1="563.487" y1="239.47" x2="215.595" y2="181.867" gradientUnits="userSpaceOnUse">
<stop stop-color="#DDCF54"/>
<stop offset="1" stop-color="#EB7736"/>
</linearGradient>
</defs>
</svg>
