<svg width="207" height="275" viewBox="0 0 207 275" fill="none" xmlns="http://www.w3.org/2000/svg">
<path fill-rule="evenodd" clip-rule="evenodd" d="M154.585 4.9194C187.728 6.87169 222.588 3.43522 250.153 25.7564C278.241 48.5017 297.329 85.9653 304.101 125.994C310.468 163.624 299.93 201.814 285.756 236.193C273.197 266.653 247.354 282.595 228.924 308.328C202.498 345.227 194.504 411.963 154.585 419.347C116.029 426.479 88.3932 373.567 61.6395 339.271C39.386 310.743 24.7489 276.887 14.4548 239.71C4.06921 202.203 -4.17097 163.675 2.28107 124.9C9.3074 82.6736 22.1382 37.6072 51.9984 14.0842C81.4424 -9.11088 119.477 2.85142 154.585 4.9194Z" fill="url(#paint0_linear)"/>
<defs>
<linearGradient id="paint0_linear" x1="305.887" y1="157.074" x2="115.434" y2="130.976" gradientUnits="userSpaceOnUse">
<stop stop-color="#DDCF54"/>
<stop offset="1" stop-color="#EB7736"/>
</linearGradient>
</defs>
</svg>
