<svg width="407" height="86" viewBox="0 0 407 86" fill="none" xmlns="http://www.w3.org/2000/svg">
<path d="M15.396 22.6304C15.396 21.6528 15.0469 20.8911 14.3486 20.3452C13.6631 19.7993 12.4507 19.2344 10.7114 18.6504C8.97217 18.0664 7.55029 17.5015 6.4458 16.9556C2.85303 15.1909 1.05664 12.7661 1.05664 9.68115C1.05664 8.14502 1.50098 6.79297 2.38965 5.625C3.29102 4.44434 4.56055 3.53027 6.19824 2.88281C7.83594 2.22266 9.67676 1.89258 11.7207 1.89258C13.7139 1.89258 15.4976 2.24805 17.0718 2.95898C18.6587 3.66992 19.8901 4.68555 20.7661 6.00586C21.6421 7.31348 22.0801 8.81152 22.0801 10.5H15.415C15.415 9.37012 15.0659 8.49414 14.3677 7.87207C13.6821 7.25 12.749 6.93896 11.5684 6.93896C10.375 6.93896 9.4292 7.20557 8.73096 7.73877C8.04541 8.25928 7.70264 8.92578 7.70264 9.73828C7.70264 10.4492 8.0835 11.0967 8.84521 11.6807C9.60693 12.252 10.9463 12.8486 12.8633 13.4707C14.7803 14.0801 16.3545 14.7402 17.5859 15.4512C20.582 17.1777 22.0801 19.5581 22.0801 22.5923C22.0801 25.0171 21.166 26.9214 19.3379 28.3052C17.5098 29.689 15.0024 30.3809 11.8159 30.3809C9.56885 30.3809 7.53125 29.981 5.70312 29.1812C3.8877 28.3687 2.5166 27.2642 1.58984 25.8677C0.675781 24.4585 0.21875 22.8398 0.21875 21.0117H6.92188C6.92188 22.4971 7.30273 23.5952 8.06445 24.3062C8.83887 25.0044 10.0894 25.3535 11.8159 25.3535C12.9204 25.3535 13.79 25.1187 14.4248 24.6489C15.0723 24.1665 15.396 23.4937 15.396 22.6304ZM32.4873 11.6045C33.8584 9.87793 35.6104 9.01465 37.7432 9.01465C40.0156 9.01465 41.7295 9.6875 42.8848 11.0332C44.04 12.3789 44.6304 14.3657 44.6558 16.9937V30H38.2192V17.146C38.2192 16.0542 37.9971 15.2544 37.5527 14.7466C37.1084 14.2261 36.353 13.9658 35.2866 13.9658C33.9663 13.9658 33.0332 14.3848 32.4873 15.2227V30H26.0698V0.75H32.4873V11.6045ZM60.833 30C60.6045 29.5811 60.4014 28.9653 60.2236 28.1528C59.043 29.6382 57.3926 30.3809 55.2725 30.3809C53.3301 30.3809 51.6797 29.7969 50.3213 28.6289C48.9629 27.4482 48.2837 25.9692 48.2837 24.1919C48.2837 21.9575 49.1089 20.269 50.7593 19.1265C52.4097 17.9839 54.8091 17.4126 57.9575 17.4126H59.938V16.3271C59.938 14.4355 59.1191 13.4897 57.4814 13.4897C55.958 13.4897 55.1963 14.2388 55.1963 15.7368H48.7788C48.7788 13.7437 49.623 12.125 51.3115 10.8809C53.0127 9.63672 55.1772 9.01465 57.8052 9.01465C60.4331 9.01465 62.5088 9.65576 64.0322 10.938C65.5557 12.2202 66.3364 13.9785 66.3745 16.2129V25.3345C66.3999 27.2261 66.6919 28.6733 67.2505 29.6763V30H60.833ZM56.8149 25.8105C57.6147 25.8105 58.2749 25.6392 58.7954 25.2964C59.3286 24.9536 59.7095 24.5664 59.938 24.1348V20.8403H58.0718C55.8374 20.8403 54.7202 21.8433 54.7202 23.8491C54.7202 24.4331 54.917 24.9092 55.3105 25.2773C55.7041 25.6328 56.2056 25.8105 56.8149 25.8105ZM83.4087 15.2036L81.2949 15.0513C79.2764 15.0513 77.9814 15.686 77.4102 16.9556V30H70.9927V9.39551H77.0103L77.2197 12.0425C78.2988 10.0239 79.8032 9.01465 81.7329 9.01465C82.4185 9.01465 83.0151 9.09082 83.5229 9.24316L83.4087 15.2036ZM96.3105 30.3809C93.1494 30.3809 90.5913 29.4414 88.6362 27.5625C86.6812 25.6709 85.7036 23.2144 85.7036 20.1929V19.6597C85.7036 17.5522 86.0908 15.6924 86.8652 14.0801C87.6523 12.4678 88.7949 11.2236 90.293 10.3477C91.791 9.45898 93.5684 9.01465 95.625 9.01465C98.5195 9.01465 100.805 9.91602 102.48 11.7188C104.156 13.5088 104.994 16.0098 104.994 19.2217V21.7163H92.2354C92.4639 22.8716 92.9653 23.7793 93.7397 24.4395C94.5142 25.0996 95.5171 25.4297 96.7485 25.4297C98.7798 25.4297 100.367 24.7188 101.509 23.2969L104.442 26.7627C103.642 27.8672 102.506 28.7495 101.033 29.4097C99.5732 30.0571 97.999 30.3809 96.3105 30.3809ZM95.5869 13.9658C93.708 13.9658 92.5908 15.21 92.2354 17.6982H98.71V17.2031C98.7354 16.1748 98.4751 15.3813 97.9292 14.8228C97.3833 14.2515 96.6025 13.9658 95.5869 13.9658ZM127.542 21.0117L130.969 9.39551H137.844L129.446 33.4468L129.084 34.3228C127.891 36.9888 125.783 38.3218 122.762 38.3218C121.924 38.3218 121.042 38.1948 120.115 37.9409V33.3516H120.953C121.854 33.3516 122.54 33.2183 123.009 32.9517C123.492 32.6978 123.847 32.2344 124.076 31.5615L124.59 30.1904L117.43 9.39551H124.285L127.542 21.0117ZM139.415 19.5073C139.415 17.4507 139.815 15.6226 140.615 14.0229C141.415 12.4106 142.563 11.1729 144.062 10.3096C145.56 9.44629 147.318 9.01465 149.336 9.01465C152.421 9.01465 154.853 9.97314 156.63 11.8901C158.407 13.7944 159.296 16.3906 159.296 19.6787V19.9072C159.296 23.1191 158.401 25.6709 156.611 27.5625C154.833 29.4414 152.421 30.3809 149.375 30.3809C146.442 30.3809 144.087 29.5049 142.31 27.7529C140.532 25.9883 139.574 23.6016 139.434 20.5928L139.415 19.5073ZM145.833 19.9072C145.833 21.8115 146.131 23.208 146.728 24.0967C147.324 24.9854 148.207 25.4297 149.375 25.4297C151.66 25.4297 152.828 23.6714 152.878 20.1548V19.5073C152.878 15.813 151.698 13.9658 149.336 13.9658C147.191 13.9658 146.029 15.5591 145.852 18.7456L145.833 19.9072ZM175.397 27.772C174.039 29.5112 172.204 30.3809 169.894 30.3809C167.634 30.3809 165.92 29.7271 164.752 28.4194C163.597 27.0991 163.019 25.2075 163.019 22.7446V9.39551H169.437V22.7827C169.437 24.5474 170.293 25.4297 172.007 25.4297C173.48 25.4297 174.527 24.9028 175.149 23.8491V9.39551H181.605V30H175.587L175.397 27.772ZM198.601 15.2036L196.487 15.0513C194.469 15.0513 193.174 15.686 192.603 16.9556V30H186.185V9.39551H192.203L192.412 12.0425C193.491 10.0239 194.996 9.01465 196.925 9.01465C197.611 9.01465 198.208 9.09082 198.715 9.24316L198.601 15.2036ZM11.397 67.2119H7.77881V77H1.09473V49.2734H12.0063C15.2944 49.2734 17.8652 50.0034 19.7188 51.4634C21.5723 52.9233 22.499 54.9863 22.499 57.6523C22.499 59.582 22.1055 61.1816 21.3184 62.4512C20.5439 63.7207 19.3252 64.749 17.6621 65.5361L23.4512 76.7144V77H16.291L11.397 67.2119ZM7.77881 62.0513H12.0063C13.2759 62.0513 14.228 61.7212 14.8628 61.061C15.5103 60.3882 15.834 59.4551 15.834 58.2617C15.834 57.0684 15.5103 56.1353 14.8628 55.4624C14.2153 54.7769 13.2632 54.4341 12.0063 54.4341H7.77881V62.0513ZM34.0107 77H27.5742V56.3955H34.0107V77ZM27.1934 51.0825C27.1934 50.1685 27.5234 49.4194 28.1836 48.8354C28.8438 48.2515 29.7007 47.9595 30.7544 47.9595C31.8081 47.9595 32.665 48.2515 33.3252 48.8354C33.9854 49.4194 34.3154 50.1685 34.3154 51.0825C34.3154 51.9966 33.9854 52.7456 33.3252 53.3296C32.665 53.9136 31.8081 54.2056 30.7544 54.2056C29.7007 54.2056 28.8438 53.9136 28.1836 53.3296C27.5234 52.7456 27.1934 51.9966 27.1934 51.0825ZM38.229 66.5454C38.229 64.4634 38.5718 62.6226 39.2573 61.0229C39.9429 59.4233 40.9268 58.1919 42.209 57.3286C43.4912 56.4526 44.9829 56.0146 46.6841 56.0146C48.8296 56.0146 50.5054 56.7383 51.7114 58.1855L51.9399 56.3955H57.7671V76.2192C57.7671 78.0347 57.3418 79.6089 56.4912 80.9419C55.6533 82.2876 54.4346 83.3159 52.835 84.0269C51.2354 84.7505 49.3818 85.1123 47.2744 85.1123C45.7637 85.1123 44.2974 84.8267 42.8755 84.2554C41.4663 83.6841 40.3872 82.9414 39.6382 82.0273L42.3232 78.2568C43.5166 79.666 45.0908 80.3706 47.0459 80.3706C49.8896 80.3706 51.3115 78.9106 51.3115 75.9907V75.3433C50.0801 76.7017 48.5249 77.3809 46.646 77.3809C44.1323 77.3809 42.1011 76.4224 40.5522 74.5054C39.0034 72.5757 38.229 69.9985 38.229 66.7739V66.5454ZM44.6655 66.9453C44.6655 68.6338 44.9829 69.9731 45.6177 70.9634C46.2524 71.9409 47.1411 72.4297 48.2837 72.4297C49.6675 72.4297 50.6768 71.9663 51.3115 71.0396V62.375C50.6895 61.4355 49.6929 60.9658 48.3218 60.9658C47.1792 60.9658 46.2842 61.48 45.6367 62.5083C44.9893 63.5239 44.6655 65.0029 44.6655 66.9453ZM68.6885 58.6045C70.0596 56.8779 71.8115 56.0146 73.9443 56.0146C76.2168 56.0146 77.9307 56.6875 79.0859 58.0332C80.2412 59.3789 80.8315 61.3657 80.8569 63.9937V77H74.4204V64.146C74.4204 63.0542 74.1982 62.2544 73.7539 61.7466C73.3096 61.2261 72.5542 60.9658 71.4878 60.9658C70.1675 60.9658 69.2344 61.3848 68.6885 62.2227V77H62.271V47.75H68.6885V58.6045ZM92.9019 51.2729V56.3955H96.2915V60.8516H92.9019V70.2778C92.9019 71.0522 93.0415 71.5918 93.3208 71.8965C93.6001 72.2012 94.1523 72.3535 94.9775 72.3535C95.6123 72.3535 96.1455 72.3154 96.5771 72.2393V76.8286C95.4219 77.1968 94.2158 77.3809 92.959 77.3809C90.75 77.3809 89.1187 76.8604 88.0649 75.8193C87.0112 74.7783 86.4844 73.1978 86.4844 71.0776V60.8516H83.8564V56.3955H86.4844V51.2729H92.9019ZM122.152 77C121.924 76.5811 121.721 75.9653 121.543 75.1528C120.362 76.6382 118.712 77.3809 116.592 77.3809C114.649 77.3809 112.999 76.7969 111.641 75.6289C110.282 74.4482 109.603 72.9692 109.603 71.1919C109.603 68.9575 110.428 67.269 112.079 66.1265C113.729 64.9839 116.128 64.4126 119.277 64.4126H121.257V63.3271C121.257 61.4355 120.438 60.4897 118.801 60.4897C117.277 60.4897 116.516 61.2388 116.516 62.7368H110.098C110.098 60.7437 110.942 59.125 112.631 57.8809C114.332 56.6367 116.497 56.0146 119.125 56.0146C121.752 56.0146 123.828 56.6558 125.352 57.938C126.875 59.2202 127.656 60.9785 127.694 63.2129V72.3345C127.719 74.2261 128.011 75.6733 128.57 76.6763V77H122.152ZM118.134 72.8105C118.934 72.8105 119.594 72.6392 120.115 72.2964C120.648 71.9536 121.029 71.5664 121.257 71.1348V67.8403H119.391C117.157 67.8403 116.04 68.8433 116.04 70.8491C116.04 71.4331 116.236 71.9092 116.63 72.2773C117.023 72.6328 117.525 72.8105 118.134 72.8105ZM139.739 51.2729V56.3955H143.128V60.8516H139.739V70.2778C139.739 71.0522 139.878 71.5918 140.158 71.8965C140.437 72.2012 140.989 72.3535 141.814 72.3535C142.449 72.3535 142.982 72.3154 143.414 72.2393V76.8286C142.259 77.1968 141.053 77.3809 139.796 77.3809C137.587 77.3809 135.956 76.8604 134.902 75.8193C133.848 74.7783 133.321 73.1978 133.321 71.0776V60.8516H130.693V56.3955H133.321V51.2729H139.739ZM165.619 68.0117L169.046 56.3955H175.921L167.523 80.4468L167.161 81.3228C165.968 83.9888 163.86 85.3218 160.839 85.3218C160.001 85.3218 159.119 85.1948 158.192 84.9409V80.3516H159.03C159.931 80.3516 160.617 80.2183 161.086 79.9517C161.569 79.6978 161.924 79.2344 162.153 78.5615L162.667 77.1904L155.507 56.3955H162.362L165.619 68.0117ZM177.492 66.5073C177.492 64.4507 177.892 62.6226 178.692 61.0229C179.492 59.4106 180.641 58.1729 182.139 57.3096C183.637 56.4463 185.395 56.0146 187.414 56.0146C190.499 56.0146 192.93 56.9731 194.707 58.8901C196.484 60.7944 197.373 63.3906 197.373 66.6787V66.9072C197.373 70.1191 196.478 72.6709 194.688 74.5625C192.911 76.4414 190.499 77.3809 187.452 77.3809C184.519 77.3809 182.164 76.5049 180.387 74.7529C178.609 72.9883 177.651 70.6016 177.511 67.5928L177.492 66.5073ZM183.91 66.9072C183.91 68.8115 184.208 70.208 184.805 71.0967C185.401 71.9854 186.284 72.4297 187.452 72.4297C189.737 72.4297 190.905 70.6714 190.956 67.1548V66.5073C190.956 62.813 189.775 60.9658 187.414 60.9658C185.268 60.9658 184.106 62.5591 183.929 65.7456L183.91 66.9072ZM213.474 74.772C212.116 76.5112 210.281 77.3809 207.971 77.3809C205.711 77.3809 203.997 76.7271 202.829 75.4194C201.674 74.0991 201.096 72.2075 201.096 69.7446V56.3955H207.514V69.7827C207.514 71.5474 208.371 72.4297 210.084 72.4297C211.557 72.4297 212.604 71.9028 213.227 70.8491V56.3955H219.682V77H213.665L213.474 74.772ZM236.678 62.2036L234.564 62.0513C232.546 62.0513 231.251 62.686 230.68 63.9556V77H224.262V56.3955H230.28L230.489 59.0425C231.568 57.0239 233.073 56.0146 235.002 56.0146C235.688 56.0146 236.285 56.0908 236.792 56.2432L236.678 62.2036Z" fill="white"/>
<path d="M221.701 2.27344L227.89 21.564L234.06 2.27344H242.857V30H236.154V23.5254L236.802 10.2715L230.099 30H225.681L218.958 10.2524L219.606 23.5254V30H212.922V2.27344H221.701ZM247.019 19.5073C247.019 17.4507 247.418 15.6226 248.218 14.0229C249.018 12.4106 250.167 11.1729 251.665 10.3096C253.163 9.44629 254.921 9.01465 256.94 9.01465C260.025 9.01465 262.456 9.97314 264.233 11.8901C266.011 13.7944 266.899 16.3906 266.899 19.6787V19.9072C266.899 23.1191 266.004 25.6709 264.214 27.5625C262.437 29.4414 260.025 30.3809 256.978 30.3809C254.045 30.3809 251.69 29.5049 249.913 27.7529C248.136 25.9883 247.177 23.6016 247.038 20.5928L247.019 19.5073ZM253.436 19.9072C253.436 21.8115 253.734 23.208 254.331 24.0967C254.928 24.9854 255.81 25.4297 256.978 25.4297C259.263 25.4297 260.431 23.6714 260.482 20.1548V19.5073C260.482 15.813 259.301 13.9658 256.94 13.9658C254.794 13.9658 253.633 15.5591 253.455 18.7456L253.436 19.9072ZM276.621 9.39551L276.831 11.814C278.252 9.94775 280.214 9.01465 282.715 9.01465C284.86 9.01465 286.46 9.65576 287.514 10.938C288.58 12.2202 289.132 14.1499 289.17 16.7271V30H282.734V16.9937C282.734 15.9526 282.524 15.1909 282.105 14.7085C281.687 14.2134 280.925 13.9658 279.82 13.9658C278.563 13.9658 277.63 14.4609 277.021 15.4512V30H270.604V9.39551H276.621ZM303.71 30.3809C300.549 30.3809 297.991 29.4414 296.036 27.5625C294.081 25.6709 293.103 23.2144 293.103 20.1929V19.6597C293.103 17.5522 293.49 15.6924 294.265 14.0801C295.052 12.4678 296.194 11.2236 297.692 10.3477C299.19 9.45898 300.968 9.01465 303.024 9.01465C305.919 9.01465 308.204 9.91602 309.88 11.7188C311.556 13.5088 312.394 16.0098 312.394 19.2217V21.7163H299.635C299.863 22.8716 300.365 23.7793 301.139 24.4395C301.914 25.0996 302.917 25.4297 304.148 25.4297C306.179 25.4297 307.766 24.7188 308.909 23.2969L311.841 26.7627C311.042 27.8672 309.905 28.7495 308.433 29.4097C306.973 30.0571 305.398 30.3809 303.71 30.3809ZM302.986 13.9658C301.107 13.9658 299.99 15.21 299.635 17.6982H306.109V17.2031C306.135 16.1748 305.875 15.3813 305.329 14.8228C304.783 14.2515 304.002 13.9658 302.986 13.9658ZM321.887 9.39551L322.096 11.814C323.518 9.94775 325.479 9.01465 327.98 9.01465C330.126 9.01465 331.726 9.65576 332.779 10.938C333.846 12.2202 334.398 14.1499 334.436 16.7271V30H328V16.9937C328 15.9526 327.79 15.1909 327.371 14.7085C326.952 14.2134 326.19 13.9658 325.086 13.9658C323.829 13.9658 322.896 14.4609 322.287 15.4512V30H315.869V9.39551H321.887ZM346.481 4.27295V9.39551H349.871V13.8516H346.481V23.2778C346.481 24.0522 346.621 24.5918 346.9 24.8965C347.179 25.2012 347.731 25.3535 348.557 25.3535C349.191 25.3535 349.725 25.3154 350.156 25.2393V29.8286C349.001 30.1968 347.795 30.3809 346.538 30.3809C344.329 30.3809 342.698 29.8604 341.644 28.8193C340.59 27.7783 340.063 26.1978 340.063 24.0776V13.8516H337.436V9.39551H340.063V4.27295H346.481Z" fill="url(#paint0_linear)"/>
<path d="M257.683 71.8584H269.318V77H250.999V49.2734H257.683V71.8584ZM272.032 66.5073C272.032 64.4507 272.432 62.6226 273.232 61.0229C274.032 59.4106 275.181 58.1729 276.679 57.3096C278.177 56.4463 279.935 56.0146 281.954 56.0146C285.039 56.0146 287.47 56.9731 289.247 58.8901C291.024 60.7944 291.913 63.3906 291.913 66.6787V66.9072C291.913 70.1191 291.018 72.6709 289.228 74.5625C287.451 76.4414 285.039 77.3809 281.992 77.3809C279.059 77.3809 276.704 76.5049 274.927 74.7529C273.149 72.9883 272.191 70.6016 272.051 67.5928L272.032 66.5073ZM278.45 66.9072C278.45 68.8115 278.748 70.208 279.345 71.0967C279.941 71.9854 280.824 72.4297 281.992 72.4297C284.277 72.4297 285.445 70.6714 285.496 67.1548V66.5073C285.496 62.813 284.315 60.9658 281.954 60.9658C279.808 60.9658 278.646 62.5591 278.469 65.7456L278.45 66.9072ZM304.453 72.4297C305.354 72.4297 306.053 72.1885 306.548 71.7061C307.043 71.2109 307.284 70.5254 307.271 69.6494H313.289C313.289 71.9092 312.477 73.7627 310.852 75.21C309.239 76.6572 307.157 77.3809 304.605 77.3809C301.609 77.3809 299.248 76.4414 297.521 74.5625C295.795 72.6836 294.932 70.0811 294.932 66.7549V66.4883C294.932 64.4062 295.312 62.5718 296.074 60.9849C296.849 59.3853 297.959 58.1602 299.407 57.3096C300.854 56.4463 302.568 56.0146 304.548 56.0146C307.227 56.0146 309.354 56.7573 310.928 58.2427C312.502 59.728 313.289 61.7402 313.289 64.2793H307.271C307.271 63.2129 307.011 62.394 306.491 61.8228C305.97 61.2515 305.272 60.9658 304.396 60.9658C302.733 60.9658 301.762 62.0259 301.482 64.146C301.394 64.8188 301.349 65.7456 301.349 66.9263C301.349 68.9956 301.597 70.4302 302.092 71.23C302.587 72.0298 303.374 72.4297 304.453 72.4297ZM328.609 77C328.381 76.5811 328.178 75.9653 328 75.1528C326.819 76.6382 325.169 77.3809 323.049 77.3809C321.106 77.3809 319.456 76.7969 318.098 75.6289C316.739 74.4482 316.06 72.9692 316.06 71.1919C316.06 68.9575 316.885 67.269 318.536 66.1265C320.186 64.9839 322.585 64.4126 325.734 64.4126H327.714V63.3271C327.714 61.4355 326.896 60.4897 325.258 60.4897C323.734 60.4897 322.973 61.2388 322.973 62.7368H316.555C316.555 60.7437 317.399 59.125 319.088 57.8809C320.789 56.6367 322.954 56.0146 325.582 56.0146C328.209 56.0146 330.285 56.6558 331.809 57.938C333.332 59.2202 334.113 60.9785 334.151 63.2129V72.3345C334.176 74.2261 334.468 75.6733 335.027 76.6763V77H328.609ZM324.591 72.8105C325.391 72.8105 326.051 72.6392 326.572 72.2964C327.105 71.9536 327.486 71.5664 327.714 71.1348V67.8403H325.848C323.614 67.8403 322.497 68.8433 322.497 70.8491C322.497 71.4331 322.693 71.9092 323.087 72.2773C323.48 72.6328 323.982 72.8105 324.591 72.8105ZM346.196 51.2729V56.3955H349.585V60.8516H346.196V70.2778C346.196 71.0522 346.335 71.5918 346.615 71.8965C346.894 72.2012 347.446 72.3535 348.271 72.3535C348.906 72.3535 349.439 72.3154 349.871 72.2393V76.8286C348.716 77.1968 347.51 77.3809 346.253 77.3809C344.044 77.3809 342.413 76.8604 341.359 75.8193C340.305 74.7783 339.778 73.1978 339.778 71.0776V60.8516H337.15V56.3955H339.778V51.2729H346.196ZM359.897 77H353.461V56.3955H359.897V77ZM353.08 51.0825C353.08 50.1685 353.41 49.4194 354.07 48.8354C354.73 48.2515 355.587 47.9595 356.641 47.9595C357.695 47.9595 358.552 48.2515 359.212 48.8354C359.872 49.4194 360.202 50.1685 360.202 51.0825C360.202 51.9966 359.872 52.7456 359.212 53.3296C358.552 53.9136 357.695 54.2056 356.641 54.2056C355.587 54.2056 354.73 53.9136 354.07 53.3296C353.41 52.7456 353.08 51.9966 353.08 51.0825ZM364.059 66.5073C364.059 64.4507 364.458 62.6226 365.258 61.0229C366.058 59.4106 367.207 58.1729 368.705 57.3096C370.203 56.4463 371.961 56.0146 373.98 56.0146C377.065 56.0146 379.496 56.9731 381.273 58.8901C383.051 60.7944 383.939 63.3906 383.939 66.6787V66.9072C383.939 70.1191 383.044 72.6709 381.254 74.5625C379.477 76.4414 377.065 77.3809 374.018 77.3809C371.085 77.3809 368.73 76.5049 366.953 74.7529C365.176 72.9883 364.217 70.6016 364.078 67.5928L364.059 66.5073ZM370.476 66.9072C370.476 68.8115 370.774 70.208 371.371 71.0967C371.968 71.9854 372.85 72.4297 374.018 72.4297C376.303 72.4297 377.471 70.6714 377.522 67.1548V66.5073C377.522 62.813 376.341 60.9658 373.98 60.9658C371.834 60.9658 370.673 62.5591 370.495 65.7456L370.476 66.9072ZM393.661 56.3955L393.871 58.814C395.292 56.9478 397.254 56.0146 399.755 56.0146C401.9 56.0146 403.5 56.6558 404.554 57.938C405.62 59.2202 406.172 61.1499 406.21 63.7271V77H399.774V63.9937C399.774 62.9526 399.564 62.1909 399.146 61.7085C398.727 61.2134 397.965 60.9658 396.86 60.9658C395.604 60.9658 394.67 61.4609 394.061 62.4512V77H387.644V56.3955H393.661Z" fill="url(#paint1_linear)"/>
<defs>
<linearGradient id="paint0_linear" x1="123.316" y1="47.2817" x2="393.694" y2="45.5308" gradientUnits="userSpaceOnUse">
<stop stop-color="#D73763"/>
<stop offset="1" stop-color="#F6935C"/>
</linearGradient>
<linearGradient id="paint1_linear" x1="175.005" y1="6.29035" x2="317.124" y2="141.977" gradientUnits="userSpaceOnUse">
<stop stop-color="#3790E3"/>
<stop offset="1" stop-color="#43CBE9"/>
</linearGradient>
</defs>
</svg>
